<svg id="Capa_1" enable-background="new 0 0 512 512" height="512" viewBox="0 0 512 512" width="512" xmlns="http://www.w3.org/2000/svg"><g><g><g><g><g><g><g><g><g><g><path d="m88.869 449.921c-54.421-46.945-88.869-116.41-88.869-193.921 0-141.385 114.615-256 256-256s256 114.615 256 256c0 77.529-34.464 147.009-88.908 193.955z" fill="#7584f2"/></g></g></g></g></g></g></g></g></g><path d="m511.992 254.05-180.439-180.877-5.537-5.099-169.452 210.76 1.972 2.128 70.981 70.826 193.614 98.134c54.421-46.946 88.869-116.411 88.869-193.922 0-.651-.003-1.301-.008-1.95z" fill="#4855b7"/><path d="m182.037 290.584h147.926l17.23-53.102h-180.189z" fill="#fa0"/><path d="m256 290.584h73.963l17.23-53.102h-91.193z" fill="#ff9500"/><g><path d="m370.357 347.518c-.012.006-.024.011-.036.017-6.529-6.933-15.252-11.838-25.231-13.519l-33.496-5.641c-.14-.023-.279-.049-.418-.075-14.529 13.333-33.902 21.472-55.176 21.472s-40.647-8.139-55.176-21.472c-.139.026-.278.051-.418.075l-33.496 5.641c-9.979 1.681-18.702 6.586-25.231 13.519-.012-.006-.024-.011-.036-.017-7.654 8.117-12.272 19.034-12.272 30.887v42.351c36.52 23.486 79.983 37.11 126.629 37.11s90.109-13.624 126.629-37.11v-42.351c0-11.853-4.618-22.771-12.272-30.887z" fill="#64e1dc"/></g><g><path d="m382.629 378.405c0-11.853-4.618-22.771-12.272-30.887-.012.006-.024.011-.036.017-6.529-6.933-15.252-11.838-25.231-13.519l-33.496-5.641c-.14-.023-.279-.049-.418-.075-14.504 13.31-33.946 21.441-55.176 21.469v108.096c46.604-.022 90.138-13.642 126.629-37.11z" fill="#00c8c8"/></g><g><path d="m197.343 328.89c13.97 16.848 35.06 27.579 58.657 27.579s44.687-10.731 58.657-27.579l-3.063-.516c-11.012-1.855-19.075-11.39-19.075-22.557v-50.847h-73.037v50.848c0 11.167-8.063 20.702-19.075 22.557z" fill="#ffcdbe"/></g><g><path d="m314.657 328.89-3.063-.516c-11.012-1.855-19.075-11.39-19.075-22.557v-50.847h-36.519v101.498c23.552-.034 44.709-10.756 58.657-27.578z" fill="#ffbeaa"/></g><g><path d="m256 295.768c-44.62 0-84.402-36.171-84.402-80.791v-44.922c0-44.62 39.783-80.791 84.402-80.791 44.62 0 84.402 36.171 84.402 80.791v44.922c0 44.62-39.782 80.791-84.402 80.791z" fill="#ffdecf"/></g><g><path d="m256 89.265v206.504c44.62 0 84.402-36.171 84.402-80.791v-44.922c0-44.62-39.782-80.791-84.402-80.791z" fill="#ffcdbe"/></g><path d="m148.527 149.607v107.467c0 18.507 15.003 33.51 33.51 33.51v-122.314h147.927v122.314c18.507 0 33.51-15.003 33.51-33.51v-107.467c0-59.356-48.117-107.473-107.473-107.473-59.357 0-107.474 48.117-107.474 107.473z" fill="#ffce00"/><path d="m256 168.27h73.963v122.314c18.507 0 33.51-15.003 33.51-33.51v-107.467c0-59.356-48.117-107.473-107.473-107.473z" fill="#fa0"/><path d="m88.869 449.921c44.847 38.686 103.257 62.079 167.131 62.079s122.284-23.393 167.131-62.079v-80.954h-334.262z" fill="#f2f6fc"/><path d="m256 512c63.874 0 122.284-23.393 167.131-62.079v-80.954h-167.131z" fill="#dce1eb"/><circle cx="256" cy="456.542" fill="#cdd2e1" r="29.567"/><path d="m256 426.975c16.33 0 29.567 13.238 29.567 29.567 0 16.33-13.238 29.567-29.567 29.567z" fill="#afb4c8"/></g></svg>